<svg version="1.1" viewBox="0.0 0.0 288.0 288.0" fill="none" stroke="none" stroke-linecap="square" stroke-miterlimit="10" xmlns:xlink="http://www.w3.org/1999/xlink" xmlns="http://www.w3.org/2000/svg"><clipPath id="p.0"><path d="m0 0l288.0 0l0 288.0l-288.0 0l0 -288.0z" clip-rule="nonzero"/></clipPath><g clip-path="url(#p.0)"><path fill="#000000" fill-opacity="0.0" d="m0 0l288.0 0l0 288.0l-288.0 0z" fill-rule="evenodd"/><g filter="url(#shadowFilter-p.1)"><use xlink:href="#p.1" transform="matrix(1.0 0.0 0.0 1.0 0.0 2.0)"/></g><defs><filter id="shadowFilter-p.1" filterUnits="userSpaceOnUse"><feGaussianBlur in="SourceAlpha" stdDeviation="2.0" result="blur"/><feComponentTransfer in="blur" color-interpolation-filters="sRGB"><feFuncR type="linear" slope="0" intercept="0.0"/><feFuncG type="linear" slope="0" intercept="0.0"/><feFuncB type="linear" slope="0" intercept="0.0"/><feFuncA type="linear" slope="0.5" intercept="0"/></feComponentTransfer></filter></defs><g id="p.1"><path fill="#a0009b" d="m32.232048 43.22593l0 0c-9.393188 4.3660927 -20.41333 -0.0052986145 -24.614174 -9.763779l0 0c-2.0173159 -4.6861897 -2.160112 -10.013342 -0.39697504 -14.809547c1.7631373 -4.7962065 5.2877812 -8.668586 9.79855 -10.765257l0 0c9.39319 -4.3660936 20.413332 0.0052990913 24.614172 9.763779l0 0c4.200844 9.75848 -0.008384705 21.208712 -9.401573 25.574804z" fill-rule="evenodd"/><path stroke="#a0009b" stroke-width="8.0" stroke-linejoin="round" stroke-linecap="butt" d="m32.232048 43.22593l0 0c-9.393188 4.3660927 -20.41333 -0.0052986145 -24.614174 -9.763779l0 0c-2.0173159 -4.6861897 -2.160112 -10.013342 -0.39697504 -14.809547c1.7631373 -4.7962065 5.2877812 -8.668586 9.79855 -10.765257l0 0c9.39319 -4.3660936 20.413332 0.0052990913 24.614172 9.763779l0 0c4.200844 9.75848 -0.008384705 21.208712 -9.401573 25.574804z" fill-rule="evenodd"/></g><g filter="url(#shadowFilter-p.2)"><use xlink:href="#p.2" transform="matrix(1.0 0.0 0.0 1.0 0.0 2.0)"/></g><defs><filter id="shadowFilter-p.2" filterUnits="userSpaceOnUse"><feGaussianBlur in="SourceAlpha" stdDeviation="2.0" result="blur"/><feComponentTransfer in="blur" color-interpolation-filters="sRGB"><feFuncR type="linear" slope="0" intercept="0.0"/><feFuncG type="linear" slope="0" intercept="0.0"/><feFuncB type="linear" slope="0" intercept="0.0"/><feFuncA type="linear" slope="0.5" intercept="0"/></feComponentTransfer></filter></defs><g id="p.2"><path fill="#a0009b" d="m241.86299 195.60083l0 0c-1.7916718 -10.515152 4.962845 -20.548203 15.086624 -22.40944l0 0c4.861603 -0.8938141 9.865875 0.2549286 13.911926 3.1934967c4.046051 2.9385529 6.80249 7.426239 7.6628723 12.475784l0 0c1.7916565 10.515152 -4.96286 20.548203 -15.086609 22.409454l0 0c-10.123779 1.8612366 -19.783157 -5.1541443 -21.574814 -15.669296z" fill-rule="evenodd"/><path stroke="#a0009b" stroke-width="8.0" stroke-linejoin="round" stroke-linecap="butt" d="m241.86299 195.60083l0 0c-1.7916718 -10.515152 4.962845 -20.548203 15.086624 -22.40944l0 0c4.861603 -0.8938141 9.865875 0.2549286 13.911926 3.1934967c4.046051 2.9385529 6.80249 7.426239 7.6628723 12.475784l0 0c1.7916565 10.515152 -4.96286 20.548203 -15.086609 22.409454l0 0c-10.123779 1.8612366 -19.783157 -5.1541443 -21.574814 -15.669296z" fill-rule="evenodd"/></g><g filter="url(#shadowFilter-p.3)"><use xlink:href="#p.3" transform="matrix(1.0 0.0 0.0 1.0 0.0 2.0)"/></g><defs><filter id="shadowFilter-p.3" filterUnits="userSpaceOnUse"><feGaussianBlur in="SourceAlpha" stdDeviation="2.0" result="blur"/><feComponentTransfer in="blur" color-interpolation-filters="sRGB"><feFuncR type="linear" slope="0" intercept="0.0"/><feFuncG type="linear" slope="0" intercept="0.0"/><feFuncB type="linear" slope="0" intercept="0.0"/><feFuncA type="linear" slope="0.5" intercept="0"/></feComponentTransfer></filter></defs><g id="p.3"><path fill="#a0009b" d="m100.88664 191.49352l0 0c2.4265747 -10.384705 12.50193 -16.758469 22.503937 -14.236221l0 0c4.803131 1.2112274 8.94664 4.353882 11.518982 8.736618c2.5723572 4.382736 3.3628387 9.646545 2.1975555 14.633453l0 0c-2.4265747 10.384689 -12.50193 16.758469 -22.503937 14.236221l0 0c-10.002007 -2.5222473 -16.143112 -12.985382 -13.716537 -23.370071z" fill-rule="evenodd"/><path stroke="#a0009b" stroke-width="8.0" stroke-linejoin="round" stroke-linecap="butt" d="m100.88664 191.49352l0 0c2.4265747 -10.384705 12.50193 -16.758469 22.503937 -14.236221l0 0c4.803131 1.2112274 8.94664 4.353882 11.518982 8.736618c2.5723572 4.382736 3.3628387 9.646545 2.1975555 14.633453l0 0c-2.4265747 10.384689 -12.50193 16.758469 -22.503937 14.236221l0 0c-10.002007 -2.5222473 -16.143112 -12.985382 -13.716537 -23.370071z" fill-rule="evenodd"/></g><g filter="url(#shadowFilter-p.4)"><use xlink:href="#p.4" transform="matrix(1.0 0.0 0.0 1.0 0.0 2.0)"/></g><defs><filter id="shadowFilter-p.4" filterUnits="userSpaceOnUse"><feGaussianBlur in="SourceAlpha" stdDeviation="2.0" result="blur"/><feComponentTransfer in="blur" color-interpolation-filters="sRGB"><feFuncR type="linear" slope="0" intercept="0.0"/><feFuncG type="linear" slope="0" intercept="0.0"/><feFuncB type="linear" slope="0" intercept="0.0"/><feFuncA type="linear" slope="0.5" intercept="0"/></feComponentTransfer></filter></defs><g id="p.4"><path fill="#a0009b" d="m197.94344 254.99438l0 0c0 -10.680405 8.340897 -19.338577 18.629913 -19.338577l0 0c4.9409637 0 9.679565 2.037445 13.17334 5.664139c3.4937897 3.6266785 5.4565887 8.545532 5.4565887 13.674438l0 0c0 10.68042 -8.340912 19.338593 -18.629929 19.338593l0 0c-10.289017 0 -18.629913 -8.658173 -18.629913 -19.338593z" fill-rule="evenodd"/><path stroke="#a0009b" stroke-width="8.0" stroke-linejoin="round" stroke-linecap="butt" d="m197.94344 254.99438l0 0c0 -10.680405 8.340897 -19.338577 18.629913 -19.338577l0 0c4.9409637 0 9.679565 2.037445 13.17334 5.664139c3.4937897 3.6266785 5.4565887 8.545532 5.4565887 13.674438l0 0c0 10.68042 -8.340912 19.338593 -18.629929 19.338593l0 0c-10.289017 0 -18.629913 -8.658173 -18.629913 -19.338593z" fill-rule="evenodd"/></g><g filter="url(#shadowFilter-p.5)"><use xlink:href="#p.5" transform="matrix(1.0 0.0 0.0 1.0 0.0 2.0)"/></g><defs><filter id="shadowFilter-p.5" filterUnits="userSpaceOnUse"><feGaussianBlur in="SourceAlpha" stdDeviation="2.0" result="blur"/><feComponentTransfer in="blur" color-interpolation-filters="sRGB"><feFuncR type="linear" slope="0" intercept="0.0"/><feFuncG type="linear" slope="0" intercept="0.0"/><feFuncB type="linear" slope="0" intercept="0.0"/><feFuncA type="linear" slope="0.5" intercept="0"/></feComponentTransfer></filter></defs><g id="p.5"><path fill="#a0009b" d="m117.68487 124.20489l0 0c3.6529083 -9.9846115 14.4051285 -14.997612 24.015755 -11.196846l0 0c4.6151733 1.8251877 8.344498 5.4803467 10.367523 10.161369c2.0230255 4.6810226 2.174057 10.004478 0.4198761 14.799263l0 0c-3.6529083 9.984604 -14.405121 14.997604 -24.015747 11.196854l0 0c-9.610626 -3.800766 -14.440308 -14.976028 -10.787407 -24.96064z" fill-rule="evenodd"/><path stroke="#a0009b" stroke-width="8.0" stroke-linejoin="round" stroke-linecap="butt" d="m117.68487 124.20489l0 0c3.6529083 -9.9846115 14.4051285 -14.997612 24.015755 -11.196846l0 0c4.6151733 1.8251877 8.344498 5.4803467 10.367523 10.161369c2.0230255 4.6810226 2.174057 10.004478 0.4198761 14.799263l0 0c-3.6529083 9.984604 -14.405121 14.997604 -24.015747 11.196854l0 0c-9.610626 -3.800766 -14.440308 -14.976028 -10.787407 -24.96064z" fill-rule="evenodd"/></g><g filter="url(#shadowFilter-p.6)"><use xlink:href="#p.6" transform="matrix(1.0 0.0 0.0 1.0 0.0 2.0)"/></g><defs><filter id="shadowFilter-p.6" filterUnits="userSpaceOnUse"><feGaussianBlur in="SourceAlpha" stdDeviation="2.0" result="blur"/><feComponentTransfer in="blur" color-interpolation-filters="sRGB"><feFuncR type="linear" slope="0" intercept="0.0"/><feFuncG type="linear" slope="0" intercept="0.0"/><feFuncB type="linear" slope="0" intercept="0.0"/><feFuncA type="linear" slope="0.5" intercept="0"/></feComponentTransfer></filter></defs><g id="p.6"><path fill="#a0009b" d="m68.77361 69.185295l0 0c0 -10.680405 8.340904 -19.338581 18.629921 -19.338581l0 0c4.9409637 0 9.679558 2.037449 13.173347 5.664139c3.4937897 3.626686 5.4565735 8.545528 5.4565735 13.674442l0 0c0 10.680405 -8.340897 19.338585 -18.629921 19.338585l0 0c-10.289017 0 -18.629921 -8.65818 -18.629921 -19.338585z" fill-rule="evenodd"/><path stroke="#a0009b" stroke-width="8.0" stroke-linejoin="round" stroke-linecap="butt" d="m68.77361 69.185295l0 0c0 -10.680405 8.340904 -19.338581 18.629921 -19.338581l0 0c4.9409637 0 9.679558 2.037449 13.173347 5.664139c3.4937897 3.626686 5.4565735 8.545528 5.4565735 13.674442l0 0c0 10.680405 -8.340897 19.338585 -18.629921 19.338585l0 0c-10.289017 0 -18.629921 -8.65818 -18.629921 -19.338585z" fill-rule="evenodd"/></g><path fill="#000000" fill-opacity="0.0" d="m42.030598 32.46067l32.188976 23.055119" fill-rule="evenodd"/><path stroke="#a0009b" stroke-width="8.0" stroke-linejoin="round" stroke-linecap="butt" d="m42.030598 32.46067l32.188976 23.055119" fill-rule="evenodd"/><path fill="#000000" fill-opacity="0.0" d="m100.57688 82.85974l26.866142 30.582672" fill-rule="evenodd"/><path stroke="#a0009b" stroke-width="8.0" stroke-linejoin="round" stroke-linecap="butt" d="m100.57688 82.85974l26.866142 30.582672" fill-rule="evenodd"/><path fill="#000000" fill-opacity="0.0" d="m128.47227 149.16553l-5.0708694 28.094482" fill-rule="evenodd"/><path stroke="#a0009b" stroke-width="8.0" stroke-linejoin="round" stroke-linecap="butt" d="m128.47227 149.16553l-5.0708694 28.094482" fill-rule="evenodd"/><path fill="#000000" fill-opacity="0.0" d="m137.10712 200.62737l66.29921 40.692917" fill-rule="evenodd"/><path stroke="#a0009b" stroke-width="8.0" stroke-linejoin="round" stroke-linecap="butt" d="m137.10712 200.62737l66.29921 40.692917" fill-rule="evenodd"/><path fill="#000000" fill-opacity="0.0" d="m229.74669 241.31995l19.779541 -33.228348" fill-rule="evenodd"/><path stroke="#a0009b" stroke-width="8.0" stroke-linejoin="round" stroke-linecap="butt" d="m229.74669 241.31995l19.779541 -33.228348" fill-rule="evenodd"/><path fill="#000000" fill-opacity="0.0" d="m244.938 181.1509l-92.44095 -43.181107" fill-rule="evenodd"/><path stroke="#a0009b" stroke-width="8.0" stroke-linejoin="round" stroke-linecap="butt" d="m244.938 181.1509l-92.44095 -43.181107" fill-rule="evenodd"/><path fill="#a0009b" d="m133.25984 127.068245l-10.5590515 63.719154l98.30446 61.53018l42.236206 -64.078735z" fill-rule="evenodd"/><path stroke="#a0009b" stroke-width="1.0" stroke-linejoin="round" stroke-linecap="butt" d="m133.25984 127.068245l-10.5590515 63.719154l98.30446 61.53018l42.236206 -64.078735z" fill-rule="evenodd"/></g></svg>