<svg version="1.1" viewBox="0.0 0.0 192.0 192.0" fill="none" stroke="none" stroke-linecap="square" stroke-miterlimit="10" xmlns:xlink="http://www.w3.org/1999/xlink" xmlns="http://www.w3.org/2000/svg"><clipPath id="p.0"><path d="m0 0l192.0 0l0 192.0l-192.0 0l0 -192.0z" clip-rule="nonzero"/></clipPath><g clip-path="url(#p.0)"><path fill="#000000" fill-opacity="0.0" d="m0 0l192.0 0l0 192.0l-192.0 0z" fill-rule="evenodd"/><g filter="url(#shadowFilter-p.1)"><use xlink:href="#p.1" transform="matrix(1.0 0.0 0.0 1.0 0.0 2.0)"/></g><defs><filter id="shadowFilter-p.1" filterUnits="userSpaceOnUse"><feGaussianBlur in="SourceAlpha" stdDeviation="2.0" result="blur"/><feComponentTransfer in="blur" color-interpolation-filters="sRGB"><feFuncR type="linear" slope="0" intercept="0.0"/><feFuncG type="linear" slope="0" intercept="0.0"/><feFuncB type="linear" slope="0" intercept="0.0"/><feFuncA type="linear" slope="0.5" intercept="0"/></feComponentTransfer></filter></defs><g id="p.1"><path fill="#a0009b" d="m19.348455 36.884556l0 0c-8.610423 -0.7305794 -14.786778 -8.451025 -13.795275 -17.244095l0 0c0.47613668 -4.22258 2.5753436 -8.132845 5.835819 -10.870581c3.2604742 -2.7377357 7.4151373 -4.0786815 11.550008 -3.7278438l0 0c8.610424 0.7305813 14.7867775 8.451025 13.795277 17.244095l0 0c-0.99150467 8.79307 -8.775404 15.329008 -17.385828 14.598425z" fill-rule="evenodd"/><path stroke="#a0009b" stroke-width="8.0" stroke-linejoin="round" stroke-linecap="butt" d="m19.348455 36.884556l0 0c-8.610423 -0.7305794 -14.786778 -8.451025 -13.795275 -17.244095l0 0c0.47613668 -4.22258 2.5753436 -8.132845 5.835819 -10.870581c3.2604742 -2.7377357 7.4151373 -4.0786815 11.550008 -3.7278438l0 0c8.610424 0.7305813 14.7867775 8.451025 13.795277 17.244095l0 0c-0.99150467 8.79307 -8.775404 15.329008 -17.385828 14.598425z" fill-rule="evenodd"/></g><g filter="url(#shadowFilter-p.2)"><use xlink:href="#p.2" transform="matrix(1.0 0.0 0.0 1.0 0.0 2.0)"/></g><defs><filter id="shadowFilter-p.2" filterUnits="userSpaceOnUse"><feGaussianBlur in="SourceAlpha" stdDeviation="2.0" result="blur"/><feComponentTransfer in="blur" color-interpolation-filters="sRGB"><feFuncR type="linear" slope="0" intercept="0.0"/><feFuncG type="linear" slope="0" intercept="0.0"/><feFuncB type="linear" slope="0" intercept="0.0"/><feFuncA type="linear" slope="0.5" intercept="0"/></feComponentTransfer></filter></defs><g id="p.2"><path fill="#a0009b" d="m155.71025 133.67436l0 0c-1.4959564 -8.758278 4.1304626 -17.113281 12.566925 -18.661423l0 0c4.051346 -0.7434387 8.222122 0.21434784 11.594833 2.6626587c3.372696 2.4483109 5.671051 6.186592 6.3894196 10.392456l0 0c1.4959564 8.7582855 -4.1304474 17.113281 -12.566925 18.661423l0 0c-8.436478 1.5481415 -16.488297 -4.2968445 -17.984253 -13.055115z" fill-rule="evenodd"/><path stroke="#a0009b" stroke-width="8.0" stroke-linejoin="round" stroke-linecap="butt" d="m155.71025 133.67436l0 0c-1.4959564 -8.758278 4.1304626 -17.113281 12.566925 -18.661423l0 0c4.051346 -0.7434387 8.222122 0.21434784 11.594833 2.6626587c3.372696 2.4483109 5.671051 6.186592 6.3894196 10.392456l0 0c1.4959564 8.7582855 -4.1304474 17.113281 -12.566925 18.661423l0 0c-8.436478 1.5481415 -16.488297 -4.2968445 -17.984253 -13.055115z" fill-rule="evenodd"/></g><g filter="url(#shadowFilter-p.3)"><use xlink:href="#p.3" transform="matrix(1.0 0.0 0.0 1.0 0.0 2.0)"/></g><defs><filter id="shadowFilter-p.3" filterUnits="userSpaceOnUse"><feGaussianBlur in="SourceAlpha" stdDeviation="2.0" result="blur"/><feComponentTransfer in="blur" color-interpolation-filters="sRGB"><feFuncR type="linear" slope="0" intercept="0.0"/><feFuncG type="linear" slope="0" intercept="0.0"/><feFuncB type="linear" slope="0" intercept="0.0"/><feFuncA type="linear" slope="0.5" intercept="0"/></feComponentTransfer></filter></defs><g id="p.3"><path fill="#a0009b" d="m59.56636 129.9117l0 0c2.026493 -8.653915 10.423798 -13.963043 18.755905 -11.858269l0 0c4.0012207 1.0107422 7.451973 3.6309586 9.59314 7.2842255c2.141159 3.653267 2.7973404 8.040337 1.8241806 12.196083l0 0c-2.0264893 8.653915 -10.423798 13.963043 -18.755905 11.858276l0 0c-8.332104 -2.1047668 -13.443813 -10.826401 -11.41732 -19.480316z" fill-rule="evenodd"/><path stroke="#a0009b" stroke-width="8.0" stroke-linejoin="round" stroke-linecap="butt" d="m59.56636 129.9117l0 0c2.026493 -8.653915 10.423798 -13.963043 18.755905 -11.858269l0 0c4.0012207 1.0107422 7.451973 3.6309586 9.59314 7.2842255c2.141159 3.653267 2.7973404 8.040337 1.8241806 12.196083l0 0c-2.0264893 8.653915 -10.423798 13.963043 -18.755905 11.858276l0 0c-8.332104 -2.1047668 -13.443813 -10.826401 -11.41732 -19.480316z" fill-rule="evenodd"/></g><g filter="url(#shadowFilter-p.4)"><use xlink:href="#p.4" transform="matrix(1.0 0.0 0.0 1.0 0.0 2.0)"/></g><defs><filter id="shadowFilter-p.4" filterUnits="userSpaceOnUse"><feGaussianBlur in="SourceAlpha" stdDeviation="2.0" result="blur"/><feComponentTransfer in="blur" color-interpolation-filters="sRGB"><feFuncR type="linear" slope="0" intercept="0.0"/><feFuncG type="linear" slope="0" intercept="0.0"/><feFuncB type="linear" slope="0" intercept="0.0"/><feFuncA type="linear" slope="0.5" intercept="0"/></feComponentTransfer></filter></defs><g id="p.4"><path fill="#a0009b" d="m115.59706 170.32776l0 0c0 -8.897446 6.951927 -16.110245 15.527557 -16.110245l0 0c4.118164 0 8.067657 1.6973267 10.979645 4.718582c2.9119873 3.0212555 4.5479126 7.1189575 4.5479126 11.391663l0 0c0 8.89743 -6.9519196 16.11023 -15.527557 16.11023l0 0c-8.57563 0 -15.527557 -7.212799 -15.527557 -16.11023z" fill-rule="evenodd"/><path stroke="#a0009b" stroke-width="8.0" stroke-linejoin="round" stroke-linecap="butt" d="m115.59706 170.32776l0 0c0 -8.897446 6.951927 -16.110245 15.527557 -16.110245l0 0c4.118164 0 8.067657 1.6973267 10.979645 4.718582c2.9119873 3.0212555 4.5479126 7.1189575 4.5479126 11.391663l0 0c0 8.89743 -6.9519196 16.11023 -15.527557 16.11023l0 0c-8.57563 0 -15.527557 -7.212799 -15.527557 -16.11023z" fill-rule="evenodd"/></g><g filter="url(#shadowFilter-p.5)"><use xlink:href="#p.5" transform="matrix(1.0 0.0 0.0 1.0 0.0 2.0)"/></g><defs><filter id="shadowFilter-p.5" filterUnits="userSpaceOnUse"><feGaussianBlur in="SourceAlpha" stdDeviation="2.0" result="blur"/><feComponentTransfer in="blur" color-interpolation-filters="sRGB"><feFuncR type="linear" slope="0" intercept="0.0"/><feFuncG type="linear" slope="0" intercept="0.0"/><feFuncB type="linear" slope="0" intercept="0.0"/><feFuncA type="linear" slope="0.5" intercept="0"/></feComponentTransfer></filter></defs><g id="p.5"><path fill="#a0009b" d="m79.616066 76.010635l0 0c3.0440903 -8.32341 12.005447 -12.504433 20.015747 -9.338585l0 0c3.8466873 1.5203018 6.9551086 4.566147 8.641464 8.467491c1.686348 3.901352 1.8124847 8.338623 0.35066223 12.335663l0 0c-3.0440903 8.32341 -12.005447 12.504433 -20.015747 9.338585l0 0c-8.010307 -3.1658554 -12.036217 -12.479744 -8.992126 -20.803154z" fill-rule="evenodd"/><path stroke="#a0009b" stroke-width="8.0" stroke-linejoin="round" stroke-linecap="butt" d="m79.616066 76.010635l0 0c3.0440903 -8.32341 12.005447 -12.504433 20.015747 -9.338585l0 0c3.8466873 1.5203018 6.9551086 4.566147 8.641464 8.467491c1.686348 3.901352 1.8124847 8.338623 0.35066223 12.335663l0 0c-3.0440903 8.32341 -12.005447 12.504433 -20.015747 9.338585l0 0c-8.010307 -3.1658554 -12.036217 -12.479744 -8.992126 -20.803154z" fill-rule="evenodd"/></g><g filter="url(#shadowFilter-p.6)"><use xlink:href="#p.6" transform="matrix(1.0 0.0 0.0 1.0 0.0 2.0)"/></g><defs><filter id="shadowFilter-p.6" filterUnits="userSpaceOnUse"><feGaussianBlur in="SourceAlpha" stdDeviation="2.0" result="blur"/><feComponentTransfer in="blur" color-interpolation-filters="sRGB"><feFuncR type="linear" slope="0" intercept="0.0"/><feFuncG type="linear" slope="0" intercept="0.0"/><feFuncB type="linear" slope="0" intercept="0.0"/><feFuncA type="linear" slope="0.5" intercept="0"/></feComponentTransfer></filter></defs><g id="p.6"><path fill="#a0009b" d="m55.897804 40.101482l0 0c0 -8.897438 6.951927 -16.110237 15.527557 -16.110237l0 0c4.1181717 0 8.067665 1.6973228 10.979645 4.7185783c2.9119797 3.0212555 4.54792 7.1189575 4.54792 11.391659l0 0c0 8.897438 -6.951927 16.110237 -15.527565 16.110237l0 0c-8.57563 0 -15.527557 -7.212799 -15.527557 -16.110237z" fill-rule="evenodd"/><path stroke="#a0009b" stroke-width="8.0" stroke-linejoin="round" stroke-linecap="butt" d="m55.897804 40.101482l0 0c0 -8.897438 6.951927 -16.110237 15.527557 -16.110237l0 0c4.1181717 0 8.067665 1.6973228 10.979645 4.7185783c2.9119797 3.0212555 4.54792 7.1189575 4.54792 11.391659l0 0c0 8.897438 -6.951927 16.110237 -15.527565 16.110237l0 0c-8.57563 0 -15.527557 -7.212799 -15.527557 -16.110237z" fill-rule="evenodd"/></g><path fill="#000000" fill-opacity="0.0" d="m36.734283 22.28613l23.716534 6.4251976" fill-rule="evenodd"/><path stroke="#a0009b" stroke-width="12.0" stroke-linejoin="round" stroke-linecap="butt" d="m36.734283 22.28613l23.716534 6.4251976" fill-rule="evenodd"/><path fill="#000000" fill-opacity="0.0" d="m82.40501 51.493137l5.354332 15.527561" fill-rule="evenodd"/><path stroke="#a0009b" stroke-width="12.0" stroke-linejoin="round" stroke-linecap="butt" d="m82.40501 51.493137l5.354332 15.527561" fill-rule="evenodd"/><path fill="#000000" fill-opacity="0.0" d="m88.60819 96.81379l-10.29921 21.22834" fill-rule="evenodd"/><path stroke="#a0009b" stroke-width="12.0" stroke-linejoin="round" stroke-linecap="butt" d="m88.60819 96.81379l-10.29921 21.22834" fill-rule="evenodd"/><path fill="#000000" fill-opacity="0.0" d="m89.739586 137.53374l30.393707 21.417328" fill-rule="evenodd"/><path stroke="#a0009b" stroke-width="12.0" stroke-linejoin="round" stroke-linecap="butt" d="m89.739586 137.53374l30.393707 21.417328" fill-rule="evenodd"/><path fill="#000000" fill-opacity="0.0" d="m142.10426 158.9361l20.0 -14.866135" fill-rule="evenodd"/><path stroke="#a0009b" stroke-width="12.0" stroke-linejoin="round" stroke-linecap="butt" d="m142.10426 158.9361l20.0 -14.866135" fill-rule="evenodd"/><path fill="#000000" fill-opacity="0.0" d="m158.26906 121.63985l-49.637794 -34.173225" fill-rule="evenodd"/><path stroke="#a0009b" stroke-width="12.0" stroke-linejoin="round" stroke-linecap="butt" d="m158.26906 121.63985l-49.637794 -34.173225" fill-rule="evenodd"/></g></svg>