<svg version="1.1" viewBox="0.0 0.0 297.31233595800524 286.3228346456693" fill="none" stroke="none" stroke-linecap="square" stroke-miterlimit="10" xmlns:xlink="http://www.w3.org/1999/xlink" xmlns="http://www.w3.org/2000/svg"><clipPath id="p.0"><path d="m0 0l297.31235 0l0 286.32285l-297.31235 0l0 -286.32285z" clip-rule="nonzero"/></clipPath><g clip-path="url(#p.0)"><path fill="#000000" fill-opacity="0.0" d="m0 0l297.31235 0l0 286.32285l-297.31235 0z" fill-rule="evenodd"/><path fill="#000000" fill-opacity="0.0" d="m33.275497 42.97541l0 0c-9.697599 4.34 -21.077324 -0.003189087 -25.417324 -9.70079l0 0c-2.0841422 -4.65695 -2.232957 -9.951086 -0.4137063 -14.717758c1.8192501 -4.766673 5.4575424 -8.615421 10.114493 -10.699563l0 0c9.697599 -4.3400016 21.07732 0.003189087 25.417324 9.700788l0 0c4.34 9.6975975 -0.003189087 21.07732 -9.700787 25.417324z" fill-rule="evenodd"/><path stroke="#000000" stroke-width="8.0" stroke-linejoin="round" stroke-linecap="butt" d="m33.275497 42.97541l0 0c-9.697599 4.34 -21.077324 -0.003189087 -25.417324 -9.70079l0 0c-2.0841422 -4.65695 -2.232957 -9.951086 -0.4137063 -14.717758c1.8192501 -4.766673 5.4575424 -8.615421 10.114493 -10.699563l0 0c9.697599 -4.3400016 21.07732 0.003189087 25.417324 9.700788l0 0c4.34 9.6975975 -0.003189087 21.07732 -9.700787 25.417324z" fill-rule="evenodd"/><path fill="#000000" fill-opacity="0.0" d="m249.68884 194.46239l0 0c-1.8525391 -10.454269 5.120529 -20.430908 15.574799 -22.283463l0 0c5.0203247 -0.8896179 10.188416 0.25151062 14.367401 3.172348c4.178955 2.9208374 7.0264587 7.382141 7.9160767 12.402466l0 0c1.8525391 10.454269 -5.1205444 20.430908 -15.574799 22.283463l0 0c-10.454285 1.8525391 -20.430923 -5.120529 -22.283478 -15.574814z" fill-rule="evenodd"/><path stroke="#000000" stroke-width="8.0" stroke-linejoin="round" stroke-linecap="butt" d="m249.68884 194.46239l0 0c-1.8525391 -10.454269 5.120529 -20.430908 15.574799 -22.283463l0 0c5.0203247 -0.8896179 10.188416 0.25151062 14.367401 3.172348c4.178955 2.9208374 7.0264587 7.382141 7.9160767 12.402466l0 0c1.8525391 10.454269 -5.1205444 20.430908 -15.574799 22.283463l0 0c-10.454285 1.8525391 -20.430923 -5.120529 -22.283478 -15.574814z" fill-rule="evenodd"/><path fill="#000000" fill-opacity="0.0" d="m104.14909 190.37761l0 0c2.5048523 -10.323807 12.904541 -16.662323 23.228348 -14.157471l0 0c4.957672 1.2028656 9.234451 4.325897 11.889496 8.682053c2.6550293 4.3561707 3.4708557 9.588623 2.26799 14.546295l0 0c-2.5048523 10.323807 -12.904541 16.662323 -23.228348 14.157471l0 0c-10.323814 -2.5048523 -16.66233 -12.904526 -14.157486 -23.228348z" fill-rule="evenodd"/><path stroke="#000000" stroke-width="8.0" stroke-linejoin="round" stroke-linecap="butt" d="m104.14909 190.37761l0 0c2.5048523 -10.323807 12.904541 -16.662323 23.228348 -14.157471l0 0c4.957672 1.2028656 9.234451 4.325897 11.889496 8.682053c2.6550293 4.3561707 3.4708557 9.588623 2.26799 14.546295l0 0c-2.5048523 10.323807 -12.904541 16.662323 -23.228348 14.157471l0 0c-10.323814 -2.5048523 -16.66233 -12.904526 -14.157486 -23.228348z" fill-rule="evenodd"/><path fill="#000000" fill-opacity="0.0" d="m204.34383 253.51181l0 0c0 -10.619522 8.608826 -19.228348 19.228348 -19.228348l0 0c5.0996857 0 9.9904785 2.0258331 13.596497 5.631851c3.606018 3.606018 5.631851 8.496826 5.631851 13.596497l0 0c0 10.619537 -8.608826 19.228333 -19.228348 19.228333l0 0c-10.619522 0 -19.228348 -8.608795 -19.228348 -19.228333z" fill-rule="evenodd"/><path stroke="#000000" stroke-width="8.0" stroke-linejoin="round" stroke-linecap="butt" d="m204.34383 253.51181l0 0c0 -10.619522 8.608826 -19.228348 19.228348 -19.228348l0 0c5.0996857 0 9.9904785 2.0258331 13.596497 5.631851c3.606018 3.606018 5.631851 8.496826 5.631851 13.596497l0 0c0 10.619537 -8.608826 19.228333 -19.228348 19.228333l0 0c-10.619522 0 -19.228348 -8.608795 -19.228348 -19.228333z" fill-rule="evenodd"/><path fill="#000000" fill-opacity="0.0" d="m121.48354 123.47663l0 0c3.7746735 -9.923729 14.879417 -14.908531 24.803154 -11.133858l0 0c4.7655487 1.8126602 8.615829 5.4441833 10.703827 10.095673c2.0879974 4.651497 2.242691 9.941925 0.4300232 14.707474l0 0c-3.7746582 9.923737 -14.87941 14.908524 -24.803146 11.133865l0 0c-9.923729 -3.7746735 -14.908524 -14.879425 -11.133858 -24.803154z" fill-rule="evenodd"/><path stroke="#000000" stroke-width="8.0" stroke-linejoin="round" stroke-linecap="butt" d="m121.48354 123.47663l0 0c3.7746735 -9.923729 14.879417 -14.908531 24.803154 -11.133858l0 0c4.7655487 1.8126602 8.615829 5.4441833 10.703827 10.095673c2.0879974 4.651497 2.242691 9.941925 0.4300232 14.707474l0 0c-3.7746582 9.923737 -14.87941 14.908524 -24.803146 11.133865l0 0c-9.923729 -3.7746735 -14.908524 -14.879425 -11.133858 -24.803154z" fill-rule="evenodd"/><path fill="#000000" fill-opacity="0.0" d="m70.997375 68.784775l0 0c0 -10.619522 8.608826 -19.228344 19.228348 -19.228344l0 0c5.0996704 0 9.9904785 2.025837 13.596489 5.631851c3.606018 3.6060143 5.631859 8.496819 5.631859 13.596493l0 0c0 10.619522 -8.608826 19.228348 -19.228348 19.228348l0 0c-10.619522 0 -19.228348 -8.608826 -19.228348 -19.228348z" fill-rule="evenodd"/><path stroke="#000000" stroke-width="8.0" stroke-linejoin="round" stroke-linecap="butt" d="m70.997375 68.784775l0 0c0 -10.619522 8.608826 -19.228344 19.228348 -19.228344l0 0c5.0996704 0 9.9904785 2.025837 13.596489 5.631851c3.606018 3.6060143 5.631859 8.496819 5.631859 13.596493l0 0c0 10.619522 -8.608826 19.228348 -19.228348 19.228348l0 0c-10.619522 0 -19.228348 -8.608826 -19.228348 -19.228348z" fill-rule="evenodd"/><path fill="#000000" fill-opacity="0.0" d="m43.389988 32.275845l33.228344 22.89764" fill-rule="evenodd"/><path stroke="#000000" stroke-width="8.0" stroke-linejoin="round" stroke-linecap="butt" d="m43.389988 32.275845l33.228344 22.89764" fill-rule="evenodd"/><path fill="#000000" fill-opacity="0.0" d="m103.82221 82.38127l27.74804 30.3937" fill-rule="evenodd"/><path stroke="#000000" stroke-width="8.0" stroke-linejoin="round" stroke-linecap="butt" d="m103.82221 82.38127l27.74804 30.3937" fill-rule="evenodd"/><path fill="#000000" fill-opacity="0.0" d="m132.6174 148.27979l-5.22834 27.936996" fill-rule="evenodd"/><path stroke="#000000" stroke-width="8.0" stroke-linejoin="round" stroke-linecap="butt" d="m132.6174 148.27979l-5.22834 27.936996" fill-rule="evenodd"/><path fill="#000000" fill-opacity="0.0" d="m141.53493 199.44849l68.44093 40.472427" fill-rule="evenodd"/><path stroke="#000000" stroke-width="8.0" stroke-linejoin="round" stroke-linecap="butt" d="m141.53493 199.44849l68.44093 40.472427" fill-rule="evenodd"/><path fill="#000000" fill-opacity="0.0" d="m237.16867 239.91531l20.440948 -33.039368" fill-rule="evenodd"/><path stroke="#000000" stroke-width="8.0" stroke-linejoin="round" stroke-linecap="butt" d="m237.16867 239.91531l20.440948 -33.039368" fill-rule="evenodd"/><path fill="#000000" fill-opacity="0.0" d="m252.86119 180.09502l-95.433075 -42.960632" fill-rule="evenodd"/><path stroke="#000000" stroke-width="8.0" stroke-linejoin="round" stroke-linecap="butt" d="m252.86119 180.09502l-95.433075 -42.960632" fill-rule="evenodd"/></g></svg>